<svg id="visual" viewBox="0 0 1080 100" width="1080" height="100" xmlns="http://www.w3.org/2000/svg" xmlns:xlink="http://www.w3.org/1999/xlink" version="1.1"><rect x="0" y="0" width="1080" height="100" fill="#3d8da1"></rect><path d="M0 22L18 23.2C36 24.3 72 26.7 108 35C144 43.3 180 57.7 216 58.8C252 60 288 48 324 42.2C360 36.3 396 36.7 432 43C468 49.3 504 61.7 540 61.3C576 61 612 48 648 41.8C684 35.7 720 36.3 756 38.5C792 40.7 828 44.3 864 41.7C900 39 936 30 972 32C1008 34 1044 47 1062 53.5L1080 60L1080 0L1062 0C1044 0 1008 0 972 0C936 0 900 0 864 0C828 0 792 0 756 0C720 0 684 0 648 0C612 0 576 0 540 0C504 0 468 0 432 0C396 0 360 0 324 0C288 0 252 0 216 0C180 0 144 0 108 0C72 0 36 0 18 0L0 0Z" fill="#d4dfc0" stroke-linecap="round" stroke-linejoin="miter"></path></svg>