<svg id="visual" viewBox="0 0 1080 100" width="1080" height="100" xmlns="http://www.w3.org/2000/svg" xmlns:xlink="http://www.w3.org/1999/xlink" version="1.1"><rect x="0" y="0" width="1080" height="100" fill="#3d8da1"></rect><path d="M0 42L12.8 45.2C25.7 48.3 51.3 54.7 77 56.8C102.7 59 128.3 57 154 54.2C179.7 51.3 205.3 47.7 231.2 49.2C257 50.7 283 57.3 308.8 58.5C334.7 59.7 360.3 55.3 386 55.5C411.7 55.7 437.3 60.3 463 57.8C488.7 55.3 514.3 45.7 540 44.3C565.7 43 591.3 50 617 53.8C642.7 57.7 668.3 58.3 694 53.7C719.7 49 745.3 39 771.2 37C797 35 823 41 848.8 45.7C874.7 50.3 900.3 53.7 926 51.5C951.7 49.3 977.3 41.7 1003 40.2C1028.7 38.7 1054.3 43.3 1067.2 45.7L1080 48L1080 101L1067.2 101C1054.3 101 1028.7 101 1003 101C977.3 101 951.7 101 926 101C900.3 101 874.7 101 848.8 101C823 101 797 101 771.2 101C745.3 101 719.7 101 694 101C668.3 101 642.7 101 617 101C591.3 101 565.7 101 540 101C514.3 101 488.7 101 463 101C437.3 101 411.7 101 386 101C360.3 101 334.7 101 308.8 101C283 101 257 101 231.2 101C205.3 101 179.7 101 154 101C128.3 101 102.7 101 77 101C51.3 101 25.7 101 12.8 101L0 101Z" fill="#d4c5a7"></path><path d="M0 51L12.8 50.2C25.7 49.3 51.3 47.7 77 50.2C102.7 52.7 128.3 59.3 154 59C179.7 58.7 205.3 51.3 231.2 49.2C257 47 283 50 308.8 54.8C334.7 59.7 360.3 66.3 386 68.5C411.7 70.7 437.3 68.3 463 63.7C488.7 59 514.3 52 540 48.3C565.7 44.7 591.3 44.3 617 45.8C642.7 47.3 668.3 50.7 694 52.5C719.7 54.3 745.3 54.7 771.2 54.2C797 53.7 823 52.3 848.8 53C874.7 53.7 900.3 56.3 926 57.5C951.7 58.7 977.3 58.3 1003 55.7C1028.7 53 1054.3 48 1067.2 45.5L1080 43L1080 101L1067.2 101C1054.3 101 1028.7 101 1003 101C977.3 101 951.7 101 926 101C900.3 101 874.7 101 848.8 101C823 101 797 101 771.2 101C745.3 101 719.7 101 694 101C668.3 101 642.7 101 617 101C591.3 101 565.7 101 540 101C514.3 101 488.7 101 463 101C437.3 101 411.7 101 386 101C360.3 101 334.7 101 308.8 101C283 101 257 101 231.2 101C205.3 101 179.7 101 154 101C128.3 101 102.7 101 77 101C51.3 101 25.7 101 12.8 101L0 101Z" fill="#e2d2b4"></path><path d="M0 69L12.8 70.8C25.7 72.7 51.3 76.3 77 76C102.7 75.7 128.3 71.3 154 69.8C179.7 68.3 205.3 69.7 231.2 71.8C257 74 283 77 308.8 79.3C334.7 81.7 360.3 83.3 386 82.5C411.7 81.7 437.3 78.3 463 75.7C488.7 73 514.3 71 540 72C565.7 73 591.3 77 617 79.2C642.7 81.3 668.3 81.7 694 79.5C719.7 77.3 745.3 72.7 771.2 69.3C797 66 823 64 848.8 63.3C874.7 62.7 900.3 63.3 926 65.7C951.7 68 977.3 72 1003 74.3C1028.7 76.7 1054.3 77.3 1067.2 77.7L1080 78L1080 101L1067.2 101C1054.3 101 1028.7 101 1003 101C977.3 101 951.7 101 926 101C900.3 101 874.7 101 848.8 101C823 101 797 101 771.2 101C745.3 101 719.7 101 694 101C668.3 101 642.7 101 617 101C591.3 101 565.7 101 540 101C514.3 101 488.7 101 463 101C437.3 101 411.7 101 386 101C360.3 101 334.7 101 308.8 101C283 101 257 101 231.2 101C205.3 101 179.7 101 154 101C128.3 101 102.7 101 77 101C51.3 101 25.7 101 12.8 101L0 101Z" fill="#f0e0c0"></path><path d="M0 76L12.8 78.5C25.7 81 51.3 86 77 86.2C102.7 86.3 128.3 81.7 154 81.5C179.7 81.3 205.3 85.7 231.2 85.7C257 85.7 283 81.3 308.8 79.7C334.7 78 360.3 79 386 79.7C411.7 80.3 437.3 80.7 463 79.5C488.7 78.3 514.3 75.7 540 75.3C565.7 75 591.3 77 617 78.8C642.7 80.7 668.3 82.3 694 82.2C719.7 82 745.3 80 771.2 78.5C797 77 823 76 848.8 75.7C874.7 75.3 900.3 75.7 926 78C951.7 80.3 977.3 84.7 1003 86.7C1028.7 88.7 1054.3 88.3 1067.2 88.2L1080 88L1080 101L1067.2 101C1054.3 101 1028.7 101 1003 101C977.3 101 951.7 101 926 101C900.3 101 874.7 101 848.8 101C823 101 797 101 771.2 101C745.3 101 719.7 101 694 101C668.3 101 642.7 101 617 101C591.3 101 565.7 101 540 101C514.3 101 488.7 101 463 101C437.3 101 411.7 101 386 101C360.3 101 334.7 101 308.8 101C283 101 257 101 231.2 101C205.3 101 179.7 101 154 101C128.3 101 102.7 101 77 101C51.3 101 25.7 101 12.8 101L0 101Z" fill="#ffeecd"></path></svg>